<?xml version="1.0" standalone="no"?>
<!DOCTYPE svg PUBLIC "-//W3C//DTD SVG 20010904//EN"
 "http://www.w3.org/TR/2001/REC-SVG-20010904/DTD/svg10.dtd">
<svg version="1.0" xmlns="http://www.w3.org/2000/svg"
 width="2886.000000pt" height="1026.000000pt" viewBox="0 0 2886.000000 1026.000000"
 preserveAspectRatio="xMidYMid meet">

<g transform="translate(0.000000,1026.000000) scale(0.100000,-0.100000)"
fill="#000000" stroke="none">
<path d="M2010 10214 c-45 -19 -77 -50 -100 -94 -21 -41 -1243 -3800 -1237
-3806 2 -2 642 -3 1423 -2 l1420 3 -616 1897 c-381 1173 -626 1910 -641 1932
-49 73 -166 106 -249 70z"/>
<path d="M8950 10214 c-45 -19 -77 -50 -100 -94 -21 -41 -1243 -3801 -1237
-3806 2 -2 643 -3 1423 -2 l1420 3 -552 1700 c-304 935 -580 1787 -615 1894
-35 107 -75 211 -89 233 -48 75 -166 109 -250 72z"/>
<path d="M3536 6278 c37 -122 2018 -6216 2022 -6224 6 -10 2034 6216 2032
6239 0 4 -914 7 -2031 7 l-2030 0 7 -22z"/>
</g>
</svg>
