<?xml version="1.0" standalone="no"?>
<!DOCTYPE svg PUBLIC "-//W3C//DTD SVG 20010904//EN"
 "http://www.w3.org/TR/2001/REC-SVG-20010904/DTD/svg10.dtd">
<svg version="1.0" xmlns="http://www.w3.org/2000/svg"
 width="1200.000000pt" height="675.000000pt" viewBox="0 0 1200.000000 675.000000"
 preserveAspectRatio="xMidYMid meet">

<g transform="translate(0.000000,675.000000) scale(0.100000,-0.100000)"
fill="#000000" stroke="none">
<path d="M3808 6465 c-15 -9 -32 -24 -38 -35 -6 -12 -10 -165 -10 -419 l0
-400 24 -28 24 -28 176 -3 176 -3 0 -470 0 -469 516 0 c356 0 529 -4 561 -12
87 -22 153 -110 153 -205 0 -31 -2 -33 -35 -33 -36 0 -75 -28 -75 -54 0 -7
-11 -21 -25 -30 -14 -9 -25 -25 -25 -36 0 -19 -8 -20 -296 -20 -250 0 -301 -2
-330 -16 -46 -22 -74 -83 -74 -162 0 -48 -3 -62 -15 -62 -8 0 -25 -10 -37 -22
-13 -13 -36 -30 -53 -38 -25 -13 -30 -22 -33 -57 l-3 -43 -799 0 c-760 0 -798
1 -793 18 7 29 -15 71 -44 85 -15 6 -37 22 -50 35 -12 12 -29 22 -38 22 -11 0
-15 11 -15 44 0 36 -5 48 -26 65 -24 19 -40 21 -170 21 l-144 0 0 24 c0 54
-40 70 -171 65 -98 -4 -119 -16 -119 -66 0 -20 -5 -23 -38 -23 -26 0 -41 6
-50 20 -20 32 -142 27 -142 -6 0 -9 -12 -14 -35 -14 -25 0 -44 -8 -61 -25
l-25 -25 3 -276 3 -275 25 -19 c21 -17 42 -20 137 -20 111 0 113 -1 180 -37
62 -34 75 -38 143 -37 76 0 164 28 191 60 9 11 41 14 131 14 113 0 120 1 143
25 17 16 25 35 25 60 0 28 5 37 24 45 13 5 30 17 37 28 8 10 26 22 41 25 19 5
30 17 38 42 7 20 9 42 6 50 -5 13 98 15 794 15 l799 0 3 -42 c3 -36 8 -45 33
-58 17 -8 40 -25 53 -38 12 -12 29 -22 37 -22 12 0 15 -13 15 -59 0 -51 -3
-61 -20 -66 -11 -3 -28 -17 -39 -31 -10 -13 -25 -24 -33 -24 -25 0 -48 -35
-48 -73 l0 -37 -408 0 c-459 0 -466 -1 -546 -71 -51 -45 -92 -122 -101 -191
-7 -47 -7 -47 -48 -50 -34 -2 -44 -8 -57 -32 -8 -16 -25 -39 -37 -52 -13 -13
-23 -30 -23 -39 0 -13 -25 -15 -190 -15 l-190 0 -32 -29 -33 -29 0 -852 0
-852 33 -29 32 -29 570 0 570 0 32 29 33 29 0 852 0 852 -33 29 -32 29 -190 0
c-165 0 -190 2 -190 15 0 9 -10 26 -22 39 -13 13 -30 36 -38 52 -13 24 -23 30
-58 32 -38 3 -42 6 -42 29 0 79 65 176 142 209 39 17 79 19 451 22 l407 3 0
-39 c0 -39 23 -72 49 -72 7 0 22 -11 32 -24 11 -14 28 -28 39 -31 19 -6 20
-17 21 -408 0 -284 4 -412 12 -437 7 -19 27 -44 46 -57 l34 -23 483 0 484 0 0
-100 0 -100 -146 0 -146 0 -28 -28 c-29 -30 -45 -90 -38 -148 l3 -29 724 -3
c419 -1 729 2 734 7 5 5 6 39 2 77 -6 56 -13 73 -36 96 l-27 28 -147 0 -146 0
3 98 3 97 501 5 c484 5 503 6 524 25 38 34 50 77 50 184 l0 100 29 15 c16 9
31 22 34 31 4 8 13 15 22 15 27 0 55 38 55 75 l0 36 628 -3 627 -3 53 -29 c59
-33 107 -91 123 -149 6 -22 9 -40 7 -41 -2 -1 -21 -7 -43 -12 -29 -7 -43 -17
-55 -39 -8 -16 -21 -34 -28 -38 -6 -4 -19 -21 -27 -37 l-16 -30 -299 0 c-317
0 -339 -3 -359 -47 -7 -16 -11 -156 -11 -439 0 -458 0 -462 61 -483 22 -8 271
-11 828 -11 738 0 799 1 831 18 19 9 40 28 47 42 10 19 13 127 13 433 0 435
-2 451 -49 477 -12 6 -140 10 -341 10 l-320 0 -10 24 c-5 13 -17 30 -28 37
-10 8 -22 24 -26 37 -10 30 -50 55 -80 50 -22 -4 -26 0 -36 40 -17 70 -45 116
-100 165 -94 85 -62 81 -767 85 l-623 3 0 34 c0 35 -21 65 -46 65 -9 0 -27 14
-41 30 -13 17 -31 30 -39 30 -10 0 -14 14 -14 55 0 43 3 55 15 55 9 0 27 11
41 25 14 14 29 25 35 25 24 0 59 50 59 85 l0 35 865 0 865 0 0 -156 0 -156 30
-29 29 -30 381 3 382 3 19 24 c18 22 19 44 19 433 l0 409 -25 24 -24 25 -376
0 -377 0 -29 -29 -29 -29 0 -221 0 -221 -865 0 -865 0 0 24 c0 46 -18 76 -50
82 -16 4 -30 13 -30 20 0 8 -16 22 -35 31 -33 16 -35 19 -35 69 0 44 3 54 20
59 11 4 28 17 36 31 9 13 24 24 34 24 27 0 50 33 50 73 l0 36 453 3 c452 3
452 3 497 26 61 32 107 77 138 137 25 46 27 61 30 196 l4 147 39 5 c44 6 69
22 69 44 0 8 14 28 30 45 17 16 30 36 30 44 0 10 13 14 43 14 44 0 77 19 96
57 8 15 11 161 11 476 0 395 2 456 15 461 22 8 22 141 0 150 -11 4 -15 20 -15
58 0 60 -16 90 -60 113 -44 23 -517 22 -565 -1 -40 -18 -65 -66 -65 -122 0
-23 -6 -45 -15 -52 -21 -17 -21 -123 0 -140 8 -7 15 -18 15 -25 0 -7 -7 -18
-15 -25 -10 -8 -15 -31 -15 -70 0 -39 5 -62 15 -70 13 -11 15 -64 15 -367 0
-380 1 -392 52 -427 12 -9 39 -16 59 -16 31 0 38 -4 49 -30 7 -17 21 -35 31
-41 11 -5 19 -16 19 -24 0 -28 38 -55 76 -55 l36 0 -4 -137 c-4 -150 -11 -171
-70 -238 -17 -20 -50 -46 -72 -58 -40 -22 -50 -22 -483 -25 l-443 -3 0 39 c0
41 -23 72 -52 72 -9 0 -23 11 -32 24 -8 14 -25 27 -36 31 -19 6 -20 15 -20
128 0 142 -13 181 -70 209 -32 17 -96 18 -887 18 -839 0 -852 0 -858 20 -3 11
-17 28 -31 39 -13 10 -24 26 -24 34 0 26 -29 47 -65 47 -32 0 -33 1 -40 53
-15 111 -68 186 -159 228 -38 17 -77 19 -553 19 l-513 0 0 444 0 445 176 3
176 3 24 28 24 28 0 404 0 404 -24 28 -24 28 -369 2 c-311 2 -372 0 -395 -12z
m750 -57 c17 -17 17 -769 0 -786 -9 -9 -105 -12 -370 -12 -343 0 -358 1 -368
19 -6 13 -10 153 -10 386 0 233 4 373 10 386 10 18 25 19 368 19 265 0 361 -3
370 -12z m4376 -850 c14 -20 16 -93 16 -590 0 -555 0 -568 -20 -588 -19 -19
-33 -20 -272 -20 -220 0 -254 2 -270 17 -17 15 -18 47 -18 594 0 512 2 579 16
593 13 14 52 16 274 16 256 0 259 0 274 -22z m-3471 -1255 c-24 -2 -62 -2 -85
0 -24 2 -5 4 42 4 47 0 66 -2 43 -4z m3327 -3 c0 -6 -51 -9 -137 -8 l-138 2
135 6 c74 3 136 7 138 8 1 1 2 -2 2 -8z m-3245 -70 c4 -6 -42 -10 -130 -10
-88 0 -134 4 -130 10 4 6 58 10 130 10 72 0 126 -4 130 -10z m3158 -7 c-23 -2
-64 -2 -90 0 -26 2 -7 3 42 3 50 0 71 -1 48 -3z m-1361 -80 c17 -15 18 -58 18
-949 l0 -933 -22 -21 c-22 -20 -27 -20 -1360 -20 l-1339 0 -24 25 -25 24 0
922 0 923 22 23 21 23 1345 0 c1238 0 1347 -1 1364 -17z m-5082 -8 c0 -12 -18
-15 -100 -15 -92 0 -112 5 -93 23 3 4 48 7 100 7 76 0 93 -3 93 -15z m209
-222 l0 -148 -20 51 c-44 115 -159 196 -280 195 -35 0 -79 -5 -97 -10 -77 -23
-157 -96 -194 -176 -31 -67 -31 -179 0 -248 12 -27 22 -49 22 -50 0 -9 -167 8
-172 17 -14 20 -9 491 4 504 9 9 106 12 375 12 l363 0 -1 -147z m115 141 c14
-5 16 -38 16 -260 0 -281 3 -268 -64 -268 l-31 0 -3 255 c-1 139 0 259 3 266
5 14 52 17 79 7z m-345 -100 c65 -19 136 -81 164 -143 47 -106 11 -246 -80
-316 -57 -43 -111 -59 -184 -52 -69 6 -125 34 -171 85 -126 140 -66 371 112
427 60 18 96 18 159 -1z m2291 -165 c0 -91 -4 -138 -10 -134 -6 4 -10 60 -10
134 0 112 3 141 17 141 2 0 3 -63 3 -141z m-1867 -130 c-4 -5 -6 54 -3 129 l5
137 3 -129 c1 -71 -1 -133 -5 -137z m74 89 c-2 -24 -4 -5 -4 42 0 47 2 66 4
43 2 -24 2 -62 0 -85z m1723 36 c0 -43 -4 -74 -10 -74 -6 0 -10 34 -10 81 0
51 4 78 10 74 6 -3 10 -40 10 -81z m2980 -109 c0 -72 -4 -126 -10 -130 -6 -4
-10 42 -10 130 0 88 4 134 10 130 6 -4 10 -58 10 -130z m57 -47 c-2 -24 -4 -5
-4 42 0 47 2 66 4 43 2 -24 2 -62 0 -85z m2594 12 c18 -10 19 -25 19 -400 0
-375 -1 -390 -19 -400 -29 -15 -703 -14 -719 2 -9 9 -12 111 -12 398 0 287 3
389 12 398 16 16 690 17 719 2z m-7623 -87 c-2 -18 -10 -27 -25 -29 -28 -5
-28 -3 -3 46 11 22 21 47 22 57 0 10 3 3 5 -15 2 -18 3 -44 1 -59z m2062 -269
c0 -87 -4 -133 -10 -129 -6 4 -10 58 -10 129 0 108 3 136 17 136 2 0 3 -61 3
-136z m-71 2 c1 -43 -2 -77 -8 -81 -8 -4 -11 22 -11 80 0 105 16 106 19 1z
m2979 -113 c-2 -140 -5 -123 -10 45 -2 50 0 92 5 92 4 0 6 -62 5 -137z m69
-45 c-2 -24 -4 -5 -4 42 0 47 2 66 4 43 2 -24 2 -62 0 -85z m-4104 -185 c-24
-2 -62 -2 -85 0 -24 2 -5 4 42 4 47 0 66 -2 43 -4z m87 -73 c0 -6 -50 -10
-130 -10 -80 0 -130 4 -130 10 0 6 50 10 130 10 80 0 130 -4 130 -10z m3950
-195 c0 -72 -4 -126 -10 -130 -6 -4 -10 42 -10 130 0 88 4 134 10 130 6 -4 10
-58 10 -130z m-3512 113 c9 -9 12 -147 12 -560 l0 -548 -89 0 -88 0 -6 44 c-9
66 -50 149 -99 202 -166 180 -436 178 -602 -6 -44 -49 -84 -133 -93 -196 l-6
-44 -88 0 -89 0 0 548 c0 413 3 551 12 560 17 17 1119 17 1136 0z m3569 -150
c-2 -24 -4 -5 -4 42 0 47 2 66 4 43 2 -24 2 -62 0 -85z m1576 -285 c-24 -2
-62 -2 -85 0 -24 2 -5 4 42 4 47 0 66 -2 43 -4z m29 -70 c-40 -2 -103 -2 -140
0 -37 2 -4 3 73 3 77 0 107 -2 67 -3z m759 -73 c18 -10 19 -26 19 -423 0 -308
-3 -416 -12 -425 -9 -9 -205 -12 -819 -12 -721 0 -809 2 -823 16 -14 13 -16
65 -16 416 0 360 2 403 17 420 15 17 54 18 815 18 532 0 806 -3 819 -10z
m-3571 -145 l0 -95 -320 0 -320 0 0 95 0 95 320 0 320 0 0 -95z m-2775 -97
c62 -32 139 -112 167 -175 17 -37 22 -68 22 -138 0 -82 -3 -96 -31 -150 -94
-182 -296 -250 -475 -159 -64 32 -117 88 -153 161 -26 51 -29 68 -29 148 0
109 20 161 91 236 80 85 141 110 268 106 74 -3 99 -8 140 -29z m3103 -64 c15
-11 22 -25 22 -50 l0 -34 -675 0 -675 0 0 34 c0 69 -28 66 675 66 555 0 633
-2 653 -16z m-3654 -321 c13 -102 96 -222 190 -277 125 -73 287 -73 412 0 94
55 177 175 190 277 l7 47 88 0 89 0 0 -252 c0 -220 -2 -254 -17 -270 -15 -17
-46 -18 -561 -18 -494 0 -547 2 -564 17 -17 15 -18 37 -18 270 l0 253 89 0 88
0 7 -47z"/>
<path d="M3862 6063 l3 -298 328 -3 327 -2 0 300 0 300 -330 0 -330 0 2 -297z
m606 0 l2 -243 -275 0 -275 0 0 245 0 245 273 -2 272 -3 3 -242z"/>
<path d="M8553 5525 c-11 -29 12 -36 108 -33 86 3 94 5 94 23 0 18 -8 20 -98
23 -82 2 -98 0 -104 -13z"/>
<path d="M8397 5463 c-4 -3 -7 -206 -7 -450 l0 -443 263 2 262 3 0 445 0 445
-256 3 c-140 1 -258 -1 -262 -5z m493 -443 l0 -420 -235 0 -235 0 0 420 0 420
235 0 235 0 0 -420z"/>
<path d="M8462 5312 c-9 -7 -12 -75 -10 -308 l3 -299 200 0 200 0 0 305 0 305
-190 2 c-104 2 -196 -1 -203 -5z m378 -302 l0 -280 -185 0 -185 0 0 280 0 280
185 0 185 0 0 -280z"/>
<path d="M8492 5178 l3 -93 165 0 165 0 3 93 3 92 -171 0 -171 0 3 -92z"/>
<path d="M8495 5000 c-4 -6 -1 -17 5 -25 10 -12 43 -15 160 -15 117 0 150 3
160 15 25 30 0 35 -160 35 -100 0 -161 -4 -165 -10z"/>
<path d="M8494 4935 c-12 -31 7 -35 166 -35 125 0 159 3 163 14 12 30 -16 36
-170 36 -125 0 -155 -3 -159 -15z"/>
<path d="M8500 4875 c-22 -27 0 -35 96 -35 78 0 96 3 101 16 9 25 -16 34 -103
34 -59 0 -85 -4 -94 -15z"/>
<path d="M8594 4516 c-3 -7 -4 -33 -2 -57 l3 -44 54 -3 c60 -4 71 4 71 55 0
56 -7 63 -66 63 -37 0 -56 -4 -60 -14z"/>
<path d="M4660 3285 l0 -785 1305 0 1305 0 0 785 0 785 -1305 0 -1305 0 0
-785z m2550 700 l0 -35 -1245 0 -1245 0 0 35 0 35 1245 0 1245 0 0 -35z m0
-765 l0 -670 -1245 0 -1245 0 0 670 0 670 1245 0 1245 0 0 -670z"/>
<path d="M6135 3617 c-61 -30 -89 -56 -116 -108 -44 -88 -15 -227 59 -276 18
-12 81 -38 141 -58 126 -41 151 -57 151 -91 0 -60 -55 -99 -127 -91 -49 5 -99
44 -109 84 -7 26 -29 28 -109 9 -45 -10 -50 -14 -47 -36 7 -46 56 -132 94
-165 21 -17 61 -39 89 -48 189 -61 369 56 369 239 0 82 -16 119 -73 171 -36
33 -65 48 -139 71 -134 42 -158 56 -158 92 0 39 32 60 94 60 46 0 53 -3 90
-44 l41 -44 60 30 c33 17 62 32 64 34 8 8 -27 71 -60 108 -48 55 -101 79 -189
83 -64 3 -82 0 -125 -20z"/>
<path d="M5727 3623 c-4 -3 -7 -135 -7 -293 l0 -287 -23 -21 c-48 -45 -119
-21 -146 51 -12 31 -25 33 -101 8 -51 -16 -55 -19 -53 -46 4 -49 52 -134 95
-165 53 -39 133 -55 199 -41 91 20 132 52 168 131 19 42 21 65 21 358 l0 312
-73 0 c-41 0 -77 -3 -80 -7z"/>
<path d="M5919 2445 c-81 -44 -47 -175 46 -175 94 0 128 132 44 175 -35 18
-56 18 -90 0z m79 -74 c5 -32 -23 -54 -49 -40 -19 10 -26 49 -12 63 4 4 19 6
33 4 18 -2 26 -10 28 -27z"/>
<path d="M1765 4014 c-22 -23 -15 -56 15 -71 29 -15 128 -17 163 -4 32 13 41
39 22 67 -14 22 -22 24 -100 24 -64 0 -87 -4 -100 -16z"/>
<path d="M2080 3927 c-56 -18 -125 -93 -144 -157 -21 -70 -13 -124 28 -191 93
-154 325 -146 408 14 60 118 14 262 -104 321 -57 28 -125 33 -188 13z m112
-123 c-2 -19 3 -38 13 -48 19 -18 56 -21 72 -5 18 18 26 -55 10 -93 -45 -104
-180 -118 -237 -25 -56 91 13 212 115 204 27 -2 30 -5 27 -33z"/>
<path d="M9407 3583 c-4 -3 -7 -138 -7 -300 l0 -293 330 0 330 0 0 300 0 300
-323 0 c-178 0 -327 -3 -330 -7z m603 -298 l0 -245 -275 0 -275 0 0 245 0 245
275 0 275 0 0 -245z"/>
<path d="M9596 3431 c-4 -5 -24 -66 -45 -135 l-39 -126 24 -6 c35 -9 54 2 60
36 5 25 11 30 35 30 23 0 31 -7 43 -35 12 -29 20 -35 45 -35 16 0 32 4 35 8 6
10 -63 242 -77 260 -11 14 -73 16 -81 3z m53 -133 c1 -5 -6 -8 -15 -8 -11 0
-14 5 -10 16 3 9 6 21 7 27 0 12 17 -20 18 -35z"/>
<path d="M9815 3361 c-24 -5 -30 -12 -30 -31 0 -23 3 -25 40 -23 l40 3 -40
-13 c-51 -16 -74 -54 -57 -91 15 -32 53 -49 86 -36 15 5 27 5 34 -2 5 -5 20
-8 33 -6 23 3 24 6 21 73 -2 39 -6 78 -9 88 -4 17 -61 49 -80 46 -4 -1 -21 -4
-38 -8z m55 -120 c0 -14 -18 -23 -30 -16 -6 4 -8 11 -5 16 8 12 35 12 35 0z"/>
<path d="M2840 2745 c-18 -21 -8 -50 19 -53 37 -6 52 26 25 52 -19 20 -28 20
-44 1z"/>
<path d="M3846 2744 c-10 -9 -15 -23 -12 -31 3 -8 6 -17 6 -19 0 -2 11 -4 25
-4 29 0 43 25 28 48 -14 23 -29 25 -47 6z"/>
<path d="M3307 2649 c-176 -41 -237 -271 -106 -396 87 -82 231 -82 318 0 133
127 70 355 -110 396 -50 12 -51 12 -102 0z m139 -59 c51 -25 92 -84 101 -145
12 -88 -49 -181 -134 -204 -47 -13 -59 -13 -105 -1 -104 29 -166 155 -124 253
42 101 162 145 262 97z"/>
<path d="M3284 2507 c-70 -64 -49 -165 41 -196 35 -12 45 -11 77 2 84 35 101
133 34 194 -50 46 -102 46 -152 0z m120 -28 c35 -27 37 -90 4 -113 -53 -37
-118 -5 -118 58 0 37 36 76 70 76 10 0 29 -9 44 -21z"/>
<path d="M8270 2161 c-19 -36 14 -70 53 -55 39 14 24 74 -18 74 -14 0 -29 -8
-35 -19z"/>
<path d="M9757 2173 c-11 -11 -8 -48 5 -61 30 -30 75 0 64 43 -5 19 -13 25
-35 25 -15 0 -31 -3 -34 -7z"/>
<path d="M8576 2129 c-59 -14 -153 -68 -188 -108 -17 -19 -43 -60 -57 -91 -22
-46 -26 -69 -26 -145 0 -82 3 -97 33 -157 38 -77 92 -130 171 -166 80 -38 202
-38 282 0 76 35 130 85 169 160 45 84 53 193 21 280 -44 114 -130 192 -246
223 -65 17 -101 18 -159 4z m54 -72 c0 -28 -52 -70 -75 -61 -27 11 -16 67 15
75 47 13 60 10 60 -14z m89 17 c28 -6 31 -10 31 -45 0 -25 -5 -39 -12 -39 -21
1 -65 43 -71 68 -6 24 1 26 52 16z m-238 -115 c-12 -19 -21 -41 -21 -49 0 -8
-9 -21 -20 -28 -19 -12 -20 -10 -20 42 0 51 3 57 38 86 l37 31 3 -25 c2 -13
-6 -39 -17 -57z m364 50 c33 -29 35 -35 35 -90 0 -58 0 -59 -20 -42 -11 10
-20 28 -20 41 0 12 -11 34 -25 48 -24 24 -35 74 -15 74 5 0 25 -14 45 -31z
m-215 -90 c0 -76 -12 -84 -31 -19 -10 33 -9 43 5 65 9 14 19 25 21 25 3 0 5
-32 5 -71z m54 62 c3 -5 0 -13 -7 -19 -10 -8 -13 -6 -13 9 0 20 11 25 20 10z
m-124 -56 c0 -20 7 -50 16 -66 18 -35 14 -44 -15 -34 -18 6 -21 14 -21 71 0
36 4 64 10 64 6 0 10 -16 10 -35z m190 3 c0 -27 -7 -37 -35 -55 -19 -13 -37
-23 -41 -23 -6 0 3 36 18 66 8 17 34 38 56 43 1 1 2 -14 2 -31z m47 -20 c-3
-8 -6 -5 -6 6 -1 11 2 17 5 13 3 -3 4 -12 1 -19z m-418 -125 c0 -90 -3 -112
-10 -93 -18 44 -13 210 6 210 3 0 5 -53 4 -117z m560 59 c8 -43 8 -72 0 -115
-7 -31 -15 -57 -18 -57 -3 0 -6 52 -6 115 0 63 3 115 6 115 4 0 12 -26 18 -58z
m-114 16 c27 -12 44 -53 28 -69 -5 -5 -19 -4 -36 3 -21 10 -27 20 -27 46 0 36
0 36 35 20z m-325 -70 c0 -36 -1 -38 -20 -28 -31 17 -45 53 -30 80 11 21 12
21 31 4 12 -11 19 -30 19 -56z m250 42 c0 -13 -7 -20 -20 -20 -25 0 -26 16 -2
29 23 14 22 14 22 -9z m-70 -45 c0 -14 -3 -25 -7 -25 -5 0 -8 11 -8 25 0 14 3
25 8 25 4 0 7 -11 7 -25z m-53 -17 c-3 -7 -5 -2 -5 12 0 14 2 19 5 13 2 -7 2
-19 0 -25z m-54 7 c1 -5 -6 -11 -15 -13 -11 -2 -18 3 -18 13 0 17 30 18 33 0z
m177 -16 c0 -18 -2 -19 -15 -9 -8 7 -15 16 -15 21 0 5 7 9 15 9 9 0 15 -9 15
-21z m90 -52 c0 -21 -26 -57 -42 -57 -4 0 -8 28 -8 62 l0 61 25 -23 c14 -13
25 -32 25 -43z m-373 -72 c28 -17 32 -26 33 -63 0 -38 -2 -42 -17 -33 -44 23
-61 55 -63 116 -3 87 2 119 9 55 5 -48 10 -57 38 -75z m396 -57 c-10 -11 -30
-29 -45 -40 l-28 -19 0 46 c0 39 4 47 23 54 42 16 57 40 59 94 1 32 3 20 5
-32 3 -69 1 -87 -14 -103z m-276 119 c-32 -42 -47 -45 -47 -10 0 23 6 31 28
39 40 15 46 6 19 -29z m142 7 c13 -17 21 -41 21 -66 0 -31 -5 -41 -25 -50 -35
-16 -49 0 -35 37 6 16 8 46 5 67 -8 45 5 49 34 12z m-229 -21 c0 -35 0 -36
-20 -18 -11 10 -20 26 -20 37 0 11 7 18 20 18 16 0 20 -7 20 -37z m130 -48 c0
-40 -3 -45 -26 -51 -17 -4 -31 -1 -42 9 -15 15 -13 19 24 51 21 20 40 35 42
36 1 0 2 -20 2 -45z m-29 -85 c26 0 29 -4 29 -30 0 -33 -17 -38 -64 -20 -19 7
-26 17 -26 36 0 20 4 25 16 20 9 -3 29 -6 45 -6z m146 -47 c-3 -2 -23 -7 -44
-10 -37 -5 -39 -4 -38 23 0 26 4 29 40 34 36 5 40 3 43 -18 2 -13 1 -26 -1
-29z"/>
<path d="M9343 2131 c-112 -29 -216 -118 -253 -219 -27 -72 -27 -183 1 -256
43 -116 170 -212 296 -223 114 -10 250 51 312 140 38 56 71 154 71 212 0 98
-65 228 -139 279 -86 60 -207 88 -288 67z m57 -74 c0 -28 -52 -70 -75 -61 -27
11 -16 67 15 75 47 13 60 10 60 -14z m89 17 c28 -6 31 -10 31 -45 0 -45 -6
-47 -54 -16 -23 14 -35 30 -36 45 0 23 9 26 59 16z m-238 -110 c-12 -15 -21
-36 -21 -48 0 -11 -12 -29 -25 -39 l-25 -18 0 54 c0 52 2 57 43 93 l42 39 3
-28 c2 -16 -5 -38 -17 -53z m357 48 c30 -25 33 -33 35 -85 2 -31 0 -57 -4 -57
-11 0 -26 24 -33 53 -4 15 -15 36 -26 47 -19 19 -28 70 -12 70 4 0 22 -13 40
-28z m-208 -94 c0 -65 -2 -71 -15 -57 -25 25 -31 86 -10 109 10 11 20 20 22
20 1 0 3 -32 3 -72z m52 57 c0 -5 -5 -11 -11 -13 -6 -2 -11 4 -11 13 0 9 5 15
11 13 6 -2 11 -8 11 -13z m-129 -34 c-3 -10 5 -40 16 -67 23 -52 22 -59 -8
-49 -18 6 -21 14 -21 71 0 35 4 64 9 64 5 0 7 -9 4 -19z m197 -13 c-1 -27 -8
-37 -37 -56 -19 -12 -38 -21 -40 -18 -18 17 38 106 67 106 5 0 10 -15 10 -32z
m47 -20 c-3 -7 -5 -2 -5 12 0 14 2 19 5 13 2 -7 2 -19 0 -25z m142 -123 c0
-38 -6 -83 -14 -100 -12 -27 -13 -18 -13 100 0 118 1 127 13 100 8 -16 14 -61
14 -100z m-559 -2 c0 -84 -3 -104 -12 -95 -21 21 -15 202 7 202 3 0 5 -48 5
-107z m455 62 c27 -26 29 -33 16 -53 -6 -10 -13 -11 -34 -1 -21 10 -27 19 -27
46 0 39 12 42 45 8z m-337 -66 l-3 -31 -27 22 c-29 22 -36 58 -17 77 18 18 51
-29 47 -68z m252 51 c0 -13 -7 -20 -20 -20 -23 0 -26 10 -8 28 18 18 28 15 28
-8z m-120 -47 c0 -20 -3 -24 -11 -16 -7 7 -9 19 -6 27 10 24 17 19 17 -11z
m50 2 c0 -8 -4 -17 -10 -20 -6 -4 -10 5 -10 20 0 15 4 24 10 20 6 -3 10 -12
10 -20z m-116 -1 c18 -7 12 -24 -10 -24 -8 0 -14 7 -14 15 0 17 2 18 24 9z
m186 -24 c0 -18 -3 -19 -20 -10 -22 12 -18 30 6 30 8 0 14 -9 14 -20z m-327
-38 c-8 -34 15 -79 48 -92 26 -11 29 -17 29 -56 0 -24 -3 -44 -7 -44 -4 0 -24
17 -45 37 l-38 37 0 86 c0 57 3 80 10 70 5 -8 7 -25 3 -38z m407 -18 c0 -23
-6 -37 -20 -44 -19 -10 -20 -8 -20 51 0 61 0 62 20 44 12 -11 20 -31 20 -51z
m50 31 c0 -8 -2 -15 -4 -15 -2 0 -6 7 -10 15 -3 8 -1 15 4 15 6 0 10 -7 10
-15z m-290 -31 c-8 -14 -22 -30 -32 -35 -15 -8 -18 -5 -18 19 0 22 6 30 28 38
35 13 38 10 22 -22z m139 -3 c37 -51 18 -121 -32 -121 -17 0 -19 5 -13 31 3
17 6 51 6 75 0 51 11 55 39 15z m-229 -18 c0 -35 0 -36 -20 -18 -11 10 -20 26
-20 37 0 11 7 18 20 18 16 0 20 -7 20 -37z m130 -43 c0 -45 -2 -50 -26 -56
-19 -5 -31 -1 -47 14 l-21 21 27 10 c14 6 33 22 43 36 9 14 18 25 20 25 2 0 4
-22 4 -50z m246 -2 c-4 -45 -10 -57 -37 -80 -18 -16 -37 -28 -41 -28 -4 0 -8
20 -8 44 0 39 3 45 26 50 14 4 33 20 42 36 9 17 18 30 20 30 1 0 0 -24 -2 -52z
m-246 -119 c0 -31 -6 -33 -59 -23 -25 5 -31 11 -31 33 0 25 2 26 45 23 42 -4
45 -6 45 -33z m118 -14 c-2 -2 -23 -7 -46 -11 -42 -7 -42 -6 -42 24 0 29 2 31
43 34 38 3 42 1 45 -20 2 -13 2 -25 0 -27z"/>
<path d="M8280 1440 c-24 -24 -25 -34 -4 -54 21 -21 37 -20 59 4 20 22 15 44
-14 60 -17 8 -24 7 -41 -10z"/>
<path d="M9768 1449 c-44 -25 -3 -93 42 -69 26 14 26 56 1 70 -23 12 -22 12
-43 -1z"/>
<path d="M3254 1911 c-59 -27 -112 -77 -142 -135 -54 -106 -26 -246 64 -326
57 -50 109 -70 184 -70 252 0 372 314 184 480 -57 50 -109 70 -184 70 -42 0
-79 -7 -106 -19z m213 -50 c51 -26 99 -80 112 -128 15 -52 14 -127 -2 -166
-35 -83 -130 -147 -217 -147 -58 0 -137 37 -174 81 -45 54 -58 95 -54 171 3
55 9 75 33 109 36 50 67 75 121 95 50 18 129 12 181 -15z"/>
<path d="M3303 1775 c-66 -28 -94 -126 -54 -191 20 -32 74 -64 111 -64 37 0
91 32 111 64 40 66 12 163 -56 192 -43 17 -71 17 -112 -1z"/>
<path d="M2830 1196 c-27 -33 18 -72 48 -42 13 13 14 20 6 34 -15 23 -38 26
-54 8z"/>
<path d="M3840 1196 c-27 -33 18 -72 48 -42 13 13 14 20 6 34 -15 23 -38 26
-54 8z"/>
</g>
</svg>
